#!OML:ASF I:\golf\golf\golf 2\Subject 1\2002-09-07\Subject1.ASF
:FULLY-SPECIFIED
:DEGREES
410
root -10.4545 18.0325 4.48345 -153.599 75.3466 -172.136
lowerback 3.13046 1.63088 -0.216652
upperback 4.58107 2.28351 4.65026
thorax 2.77121 1.14032 4.92133
lowerneck -13.291 5.65055 5.01279
upperneck 34.1787 12.8412 -10.7252
head 15.301 5.31496 -2.99645
rclavicle 5.40694e-014 -1.59028e-015
rhumerus -15.597 24.3853 -98.168
rradius 48.457
rwrist -51.2986
rhand -33.2019 -9.69848
rfingers 7.12502
rthumb -6.40917 -39.5815
lclavicle 5.40694e-014 -1.59028e-015
lhumerus -8.62834 -45.4869 105.708
lradius 42.6569
lwrist 48.8207
lhand -7.19351 64.1923
lfingers 7.12502
lthumb -161.315 86.685
rfemur -25.5156 -9.05344 16.1667
rtibia 26.4233
rfoot -10.8749 -18.0634
rtoes -2.27878
lfemur -32.9479 0.681742 -11.4334
ltibia 20.8651
lfoot -6.0037 -17.0072
ltoes -6.96135
411
root -10.4521 18.0324 4.48706 -153.461 75.3925 -171.984
lowerback 3.12846 1.65764 -0.347338
upperback 4.58936 2.31814 4.70431
thorax 2.77146 1.15331 5.05218
lowerneck -13.2711 5.67515 5.00343
upperneck 34.1329 12.9003 -10.7924
head 15.288 5.33302 -3.01146
rclavicle 1.10524e-013 4.77083e-015
rhumerus -15.5616 24.3125 -98.1151
rradius 48.4012
rwrist -51.2285
rhand -33.2494 -9.7281
rfingers 7.12502
rthumb -6.45496 -39.6097
lclavicle 1.10524e-013 4.77083e-015
lhumerus -8.57126 -45.4581 105.757
lradius 42.5906
lwrist 48.7664
lhand -7.14796 64.1698
lfingers 7.12502
lthumb -161.271 86.7118
rfemur -25.4917 -9.05184 16.2091
rtibia 26.3863
rfoot -10.9072 -17.9966
rtoes -2.0552
lfemur -32.9134 0.701522 -11.3897
ltibia 20.8805
lfoot -6.03352 -16.992
ltoes -7.03828
412
root -10.4505 18.0334 4.48808 -153.407 75.4206 -171.915
lowerback 3.14656 1.65855 -0.396392
upperback 4.57972 2.31903 4.71026
thorax 2.74923 1.15246 5.08524
lowerneck -13.1824 5.69861 5.03384
upperneck 34.0265 12.9451 -10.8912
head 15.2341 5.35012 -3.05015
rclavicle -3.57812e-014 1.90833e-014
rhumerus -15.5729 24.3359 -98.1294
rradius 48.3629
rwrist -51.1637
rhand -33.3135 -9.83026
rfingers 7.12502
rthumb -6.51682 -39.71
lclavicle -3.57812e-014 1.90833e-014
lhumerus -8.56142 -45.4321 105.756
lradius 42.5651
lwrist 48.8047
lhand -6.97139 64.1359
lfingers 7.12502
lthumb -161.102 86.7622
rfemur -25.4541 -9.05844 16.2254
rtibia 26.3393
rfoot -10.8846 -17.9517
rtoes -2.13232
lfemur -32.8855 0.647428 -11.3413
ltibia 20.89
lfoot -6.02477 -16.8987
ltoes -6.96124
413
root -10.4482 18.0363 4.48768 -153.469 75.3525 -171.955
lowerback 3.14195 1.64904 -0.303279
upperback 4.58379 2.30662 4.64825
thorax 2.76259 1.14921 4.96769
lowerneck -13.1929 5.68819 5.05362
upperneck 34.0246 12.9076 -10.8565
head 15.2285 5.33974 -3.04566
rclavicle -1.59028e-015 6.36111e-015
rhumerus -15.5616 24.2867 -98.176
rradius 48.3944
rwrist -51.2057
rhand -33.2578 -9.90116
rfingers 7.12502
rthumb -6.46308 -39.7826
lclavicle -1.59028e-015 6.36111e-015
lhumerus -8.59206 -45.6576 105.665
lradius 42.6278
lwrist 49.0525
lhand -6.93803 64.0443
lfingers 7.12502
lthumb -161.07 86.8569
rfemur -25.382 -9.13551 16.2417
rtibia 26.2898
rfoot -10.8754 -17.9266
rtoes -2.18311
lfemur -32.8782 0.486038 -11.2776
ltibia 20.9198
lfoot -6.0298 -16.7579
ltoes -6.83792
414
root -10.4463 18.0383 4.48784 -153.458 75.2578 -171.928
lowerback 3.13146 1.6664 -0.177455
upperback 4.58742 2.33051 4.58346
thorax 2.77691 1.16527 4.82852
lowerneck -13.2661 5.66006 5.0566
upperneck 34.0816 12.8174 -10.7206
head 15.2476 5.31257 -3.00495
rclavicle 1.90833e-014 -2.62396e-014
rhumerus -15.5572 24.117 -98.1949
rradius 48.4764
rwrist -51.2798
rhand -33.2542 -9.84054
rfingers 7.12502
rthumb -6.45965 -39.722
lclavicle 1.90833e-014 -2.62396e-014
lhumerus -8.64024 -45.9809 105.598
lradius 42.6977
lwrist 49.2613
lhand -6.94105 63.906
lfingers 7.12502
lthumb -161.072 86.9949
rfemur -25.3297 -9.24742 16.2989
rtibia 26.247
rfoot -10.8255 -17.9304
rtoes -2.44454
lfemur -32.8962 0.384133 -11.2133
ltibia 20.9587
lfoot -6.02134 -16.7448
ltoes -6.73406
415
root -10.4456 18.0378 4.48806 -153.255 75.1958 -171.7
lowerback 3.14582 1.6859 -0.0845677
upperback 4.57835 2.35867 4.58118
thorax 2.76049 1.18276 4.77226
lowerneck -13.2586 5.643 5.05557
upperneck 34.0483 12.7688 -10.6873
head 15.2199 5.29632 -2.99919
rclavicle -2.8625e-014 3.73715e-014
rhumerus -15.587 24.0163 -98.1722
rradius 48.5154
rwrist -51.2966
rhand -33.3445 -9.64962
rfingers 7.12502
rthumb -6.54676 -39.5284
lclavicle -2.8625e-014 3.73715e-014
lhumerus -8.74799 -46.229 105.593
lradius 42.883
lwrist 49.432
lhand -6.85317 63.8236
lfingers 7.12502
lthumb -160.988 87.0856
rfemur -25.2912 -9.30114 16.3984
rtibia 26.2171
rfoot -10.7584 -17.9533
rtoes -2.69119
lfemur -32.9013 0.442947 -11.1565
ltibia 20.9852
lfoot -6.04048 -16.8624
ltoes -6.88783
416
root -10.4434 18.0372 4.48839 -153.127 75.1628 -171.534
lowerback 3.15318 1.69358 -0.0335759
upperback 4.58382 2.37033 4.58835
thorax 2.76269 1.19036 4.75066
lowerneck -13.2633 5.64304 5.06042
upperneck 34.0181 12.7773 -10.7277
head 15.2122 5.29631 -3.01446
rclavicle -5.56597e-015 -5.56597e-014
rhumerus -15.5615 23.9515 -98.1422
rradius 48.4939
rwrist -51.2465
rhand -33.3638 -9.65769
rfingers 7.12502
rthumb -6.56538 -39.5359
lclavicle -5.56597e-015 -5.56597e-014
lhumerus -8.82841 -46.4359 105.575
lradius 43.1024
lwrist 49.6309
lhand -6.85598 63.8556
lfingers 7.12502
lthumb -160.991 87.0534
rfemur -25.2386 -9.31018 16.4523
rtibia 26.2064
rfoot -10.807 -17.9223
rtoes -2.30591
lfemur -32.8823 0.544237 -11.1452
ltibia 21.011
lfoot -6.08893 -16.979
ltoes -7.02416
417
root -10.4411 18.0364 4.49031 -153.065 75.1355 -171.449
lowerback 3.14358 1.70005 -0.0290257
upperback 4.59437 2.37896 4.59229
thorax 2.77838 1.1947 4.75285
lowerneck -13.2507 5.64812 5.08392
upperneck 33.9866 12.7927 -10.7777
head 15.203 5.30131 -3.03631
rclavicle 1.03368e-014 8.18993e-014
rhumerus -15.527 23.8828 -98.107
rradius 48.4926
rwrist -51.1487
rhand -33.2665 -9.79629
rfingers 7.12502
rthumb -6.47145 -39.6774
lclavicle 1.03368e-014 8.18993e-014
lhumerus -8.74315 -46.3773 105.607
lradius 42.971
lwrist 49.5512
lhand -6.88846 63.8068
lfingers 7.12502
lthumb -161.022 87.0991
rfemur -25.2159 -9.33371 16.4927
rtibia 26.218
rfoot -10.8481 -17.8879
rtoes -2.12596
lfemur -32.8687 0.555147 -11.1156
ltibia 21.0271
lfoot -6.13428 -16.9895
ltoes -7.13849
418
root -10.441 18.0346 4.49275 -153.08 75.1158 -171.476
lowerback 3.13249 1.69727 -0.071392
upperback 4.5771 2.37421 4.59666
thorax 2.76531 1.19096 4.78132
lowerneck -13.1566 5.66191 5.10826
upperneck 33.9025 12.8113 -10.8292
head 15.1498 5.31208 -3.05954
rclavicle -3.49861e-014 -4.77083e-015
rhumerus -15.5667 23.8758 -98.0849
rradius 48.5401
rwrist -51.0869
rhand -33.1595 -9.87551
rfingers 7.12502
rthumb -6.36817 -39.7598
lclavicle -3.49861e-014 -4.77083e-015
lhumerus -8.68357 -46.2055 105.678
lradius 42.7783
lwrist 49.3116
lhand -6.82197 63.6792
lfingers 7.12502
lthumb -160.958 87.233
rfemur -25.2461 -9.36892 16.5159
rtibia 26.2364
rfoot -10.7963 -17.9142
rtoes -2.53437
lfemur -32.8834 0.50864 -11.0946
ltibia 21.0224
lfoot -6.21864 -16.9307
ltoes -7.73549
419
root -10.4413 18.034 4.49416 -153.21 75.1228 -171.612
lowerback 3.13842 1.68792 -0.151693
upperback 4.56466 2.3605 4.59973
thorax 2.74714 1.18161 4.82953
lowerneck -13.1141 5.68332 5.11269
upperneck 33.8479 12.8533 -10.8827
head 15.1249 5.32716 -3.07487
rclavicle 7.95139e-015 -6.83819e-014
rhumerus -15.6084 23.905 -98.069
rradius 48.5988
rwrist -51.0984
rhand -33.1972 -9.98858
rfingers 7.12502
rthumb -6.40457 -39.8718
lclavicle 7.95139e-015 -6.83819e-014
lhumerus -8.68907 -46.1652 105.708
lradius 42.7696
lwrist 49.2328
lhand -6.85607 63.6732
lfingers 7.12502
lthumb -160.991 87.2357
rfemur -25.2567 -9.39009 16.4852
rtibia 26.2478
rfoot -10.8258 -17.898
rtoes -2.38277
lfemur -32.8817 0.427733 -11.0964
ltibia 21.0214
lfoot -6.24251 -16.8506
ltoes -8.06065
420
root -10.4397 18.0346 4.49608 -153.101 75.1299 -171.465
lowerback 3.14766 1.69002 -0.19043
upperback 4.58147 2.3637 4.63069
thorax 2.75665 1.18193 4.88418
lowerneck -13.1532 5.70219 5.05503
upperneck 33.8456 12.8909 -10.8692
head 15.132 5.33523 -3.05082
rclavicle -3.18055e-015 1.59028e-014
rhumerus -15.5667 23.8526 -98.053
rradius 48.5661
rwrist -51.0426
rhand -33.2257 -10.0911
rfingers 7.12502
rthumb -6.43213 -39.9734
lclavicle -3.18055e-015 1.59028e-014
lhumerus -8.64164 -46.1225 105.711
lradius 42.7966
lwrist 49.162
lhand -6.89101 63.7835
lfingers 7.12502
lthumb -161.024 87.1221
rfemur -25.2165 -9.37808 16.5232
rtibia 26.2495
rfoot -10.8778 -17.8356
rtoes -1.96361
lfemur -32.8468 0.429476 -11.0385
ltibia 21.0409
lfoot -6.18885 -16.8571
ltoes -7.6714
421
root -10.4375 18.035 4.49701 -153.019 75.1555 -171.348
lowerback 3.15434 1.68782 -0.214159
upperback 4.59243 2.36044 4.62476
thorax 2.76393 1.17947 4.89157
lowerneck -13.1907 5.73959 5.02701
upperneck 33.8638 12.9358 -10.8152
head 15.1473 5.35389 -3.01424
rclavicle -1.98785e-014 -4.69132e-014
rhumerus -15.5238 23.7714 -98.1111
rradius 48.5048
rwrist -50.9808
rhand -33.1398 -10.1088
rfingers 7.12502
rthumb -6.34917 -39.9936
lclavicle -1.98785e-014 -4.69132e-014
lhumerus -8.6088 -46.0562 105.654
lradius 42.8257
lwrist 49.0953
lhand -6.79777 63.9081
lfingers 7.12502
lthumb -160.935 87.0063
rfemur -25.1905 -9.47729 16.5705
rtibia 26.2474
rfoot -10.8134 -17.7166
rtoes -2.17392
lfemur -32.8157 0.458706 -11.0166
ltibia 21.075
lfoot -6.19748 -16.8519
ltoes -7.32841
422
root -10.436 18.0356 4.4968 -153.003 75.1577 -171.331
lowerback 3.14328 1.65436 -0.274639
upperback 4.58296 2.31454 4.63762
thorax 2.76166 1.15438 4.94009
lowerneck -13.2033 5.77735 5.00934
upperneck 33.9022 13.0151 -10.8273
head 15.1786 5.38292 -3.00197
rclavicle -9.22361e-014 -5.56597e-015
rhumerus -15.546 23.7931 -98.163
rradius 48.5045
rwrist -51.0295
rhand -33.1591 -9.89841
rfingers 7.12502
rthumb -6.36778 -39.7827
lclavicle -9.22361e-014 -5.56597e-015
lhumerus -8.5928 -45.9827 105.611
lradius 42.8148
lwrist 49.0917
lhand -6.7009 63.9799
lfingers 7.12502
lthumb -160.842 86.9438
rfemur -25.1932 -9.58349 16.5985
rtibia 26.2506
rfoot -10.754 -17.6465
rtoes -2.43417
lfemur -32.8268 0.3956 -10.9911
ltibia 21.1251
lfoot -6.27172 -16.728
ltoes -7.35084
423
root -10.435 18.0348 4.49806 -152.789 75.1205 -171.122
lowerback 3.11723 1.6426 -0.272714
upperback 4.57857 2.29891 4.67249
thorax 2.77197 1.14638 4.97671
lowerneck -13.2509 5.78696 4.97568
upperneck 33.9527 13.0512 -10.8232
head 15.2158 5.39195 -2.98725
rclavicle 1.51076e-014 6.36111e-015
rhumerus -15.5418 23.7512 -98.1576
rradius 48.4973
rwrist -51.0093
rhand -33.2372 -9.53014
rfingers 7.12502
rthumb -6.44323 -39.4121
lclavicle 1.51076e-014 6.36111e-015
lhumerus -8.53164 -46.0115 105.586
lradius 42.8007
lwrist 49.1155
lhand -6.72428 64.0352
lfingers 7.12502
lthumb -160.864 86.8862
rfemur -25.1948 -9.51504 16.6623
rtibia 26.2616
rfoot -10.7664 -17.7123
rtoes -2.52888
lfemur -32.8655 0.386474 -10.9109
ltibia 21.1806
lfoot -6.33929 -16.6958
ltoes -7.61552
424
root -10.4345 18.0314 4.49901 -152.68 75.0995 -171.006
lowerback 3.11029 1.64873 -0.248764
upperback 4.57614 2.30713 4.66327
thorax 2.77377 1.15126 4.95351
lowerneck -13.2862 5.80592 4.96408
upperneck 33.9734 13.0521 -10.7423
head 15.2245 5.39723 -2.95048
rclavicle -4.77083e-015 7.31528e-014
rhumerus -15.5152 23.6637 -98.1739
rradius 48.4833
rwrist -50.9387
rhand -33.2501 -9.41432
rfingers 7.12502
rthumb -6.45569 -39.2959
lclavicle -4.77083e-015 7.31528e-014
lhumerus -8.49151 -46.0984 105.551
lradius 42.807
lwrist 49.1873
lhand -6.85084 64.1294
lfingers 7.12502
lthumb -160.986 86.78
rfemur -25.1956 -9.47182 16.695
rtibia 26.2777
rfoot -10.7695 -17.7739
rtoes -2.86368
lfemur -32.8924 0.428774 -10.882
ltibia 21.2273
lfoot -6.41457 -16.7554
ltoes -8.05228
